<?xml version="1.0" encoding="UTF-8"?>
<svg width="20px" height="20px" viewBox="0 0 20 20" version="1.1" xmlns="http://www.w3.org/2000/svg" xmlns:xlink="http://www.w3.org/1999/xlink">
    <title>check-circle-fill</title>
    <g id="check-circle-fill" stroke="none" stroke-width="1" fill="none" fill-rule="evenodd">
        <path d="M10,2 C14.416,2 18,5.584 18,10 C18,14.416 14.416,18 10,18 C5.584,18 2,14.416 2,10 C2,5.584 5.584,2 10,2 Z M14.3535534,6.64644661 C14.1582912,6.45118446 13.8417088,6.45118446 13.6464466,6.64644661 L13.6464466,6.64644661 L8.5,11.793 L6.35355339,9.64644661 L6.2843055,9.58859116 C6.08943736,9.45359511 5.82001296,9.47288026 5.64644661,9.64644661 C5.45118446,9.84170876 5.45118446,10.1582912 5.64644661,10.3535534 L5.64644661,10.3535534 L8.5,13.2071068 L14.3535534,7.35355339 L14.4114088,7.2843055 C14.5464049,7.08943736 14.5271197,6.82001296 14.3535534,6.64644661 Z" id="Combined-Shape" fill="#ffffff"></path>
        <rect id="container" x="0" y="-4" width="20" height="20"></rect>
    </g>
</svg>