<?xml version="1.0" encoding="UTF-8"?>
<svg width="20px" height="20px" viewBox="0 0 20 20" version="1.1" xmlns="http://www.w3.org/2000/svg" xmlns:xlink="http://www.w3.org/1999/xlink">
    <title>icon_warning-fill</title>
    <g id="icon_warning-fill" stroke="none" stroke-width="1" fill="none" fill-rule="evenodd">
        <path d="M9.74023359,3.06844612 C9.99134069,2.92628583 10.3112247,3.0127186 10.4547144,3.26149911 L10.4547144,3.26149911 L17.9310034,16.2237817 C17.9762175,16.3021734 18,16.390898 18,16.4811857 C18,16.7677189 17.7655466,17 17.4763338,17 L17.4763338,17 L2.52375586,17 C2.43262382,17 2.34306941,16.9764379 2.26394464,16.9316427 C2.01283754,16.7894824 1.92559646,16.4725622 2.06908623,16.2237817 L2.06908623,16.2237817 L9.54537518,3.26149911 C9.5917664,3.18106666 9.65904894,3.11440752 9.74023359,3.06844612 Z M10,14 C9.72385763,14 9.5,14.2238576 9.5,14.5 L9.5,14.5 L9.5,15 L9.50805567,15.0898756 C9.55039163,15.3231248 9.75454011,15.5 10,15.5 C10.2761424,15.5 10.5,15.2761424 10.5,15 L10.5,15 L10.5,14.5 L10.4919443,14.4101244 C10.4496084,14.1768752 10.2454599,14 10,14 Z M10,8 C9.72385763,8 9.5,8.22385763 9.5,8.5 L9.5,8.5 L9.5,12.5 L9.50805567,12.5898756 C9.55039163,12.8231248 9.75454011,13 10,13 C10.2761424,13 10.5,12.7761424 10.5,12.5 L10.5,12.5 L10.5,8.5 L10.4919443,8.41012437 C10.4496084,8.17687516 10.2454599,8 10,8 Z" id="Combined-Shape" fill="#57565F"></path>
    </g>
</svg>