<?xml version="1.0" encoding="UTF-8"?>
<svg width="20px" height="20px" viewBox="0 0 20 20" version="1.1" xmlns="http://www.w3.org/2000/svg" xmlns:xlink="http://www.w3.org/1999/xlink">
    <title>icon_error</title>
    <g id="icon_error" stroke="none" stroke-width="1" fill="none" fill-rule="evenodd">
        <rect id="container" x="0" y="0" width="20" height="20"></rect>
        <path d="M10.3629496,2.15033863 L17.8496614,9.63705045 C18.0501129,9.83750195 18.0501129,10.1624981 17.8496614,10.3629496 L10.3629496,17.8496614 C10.1624981,18.0501129 9.83750195,18.0501129 9.63705045,17.8496614 L2.15033863,10.3629496 C1.94988712,10.1624981 1.94988712,9.83750195 2.15033863,9.63705045 L9.63705045,2.15033863 C9.83750195,1.94988712 10.1624981,1.94988712 10.3629496,2.15033863 Z M10,12.4 C9.72385763,12.4 9.5,12.6387815 9.5,12.9333333 L9.5,12.9333333 L9.5,13.4666667 L9.50805567,13.562534 C9.55039163,13.8113332 9.75454011,14 10,14 C10.2761424,14 10.5,13.7612185 10.5,13.4666667 L10.5,13.4666667 L10.5,12.9333333 L10.4919443,12.837466 C10.4496084,12.5886668 10.2454599,12.4 10,12.4 Z M10,6 C9.72385763,6 9.5,6.23878147 9.5,6.53333333 L9.5,6.53333333 L9.5,10.8 L9.50805567,10.8958673 C9.55039163,11.1446665 9.75454011,11.3333333 10,11.3333333 C10.2761424,11.3333333 10.5,11.0945519 10.5,10.8 L10.5,10.8 L10.5,6.53333333 L10.4919443,6.43746599 C10.4496084,6.18866684 10.2454599,6 10,6 Z" id="Combined-Shape" fill="#ffffff"></path>
    </g>
</svg>